<mxfile host="app.diagrams.net" modified="2024-04-03T15:36:56.051Z" agent="Mozilla/5.0 (Windows NT 10.0; Win64; x64; rv:124.0) Gecko/20100101 Firefox/124.0" etag="a8XFVAK-CB3eRW41AO7r" version="24.2.0" type="device">
  <diagram name="Page-1" id="Lo8HSTnLHUTpEW-vd8Br">
    <mxGraphModel dx="1235" dy="624" grid="1" gridSize="10" guides="1" tooltips="1" connect="1" arrows="1" fold="1" page="1" pageScale="1" pageWidth="827" pageHeight="1169" math="0" shadow="0">
      <root>
        <mxCell id="0" />
        <mxCell id="1" parent="0" />
        <mxCell id="Y3UnYj8FbFtQByEBO_pm-42" value="" style="rounded=1;whiteSpace=wrap;html=1;rotation=90;strokeColor=#000000;fontFamily=Comic Sans MS;fillColor=none;strokeWidth=2;" parent="1" vertex="1">
          <mxGeometry x="62.82" y="342.81" width="312.41" height="264.13" as="geometry" />
        </mxCell>
        <mxCell id="iIudP2gkOA4t_6Lhybjl-1" value="" style="shape=image;verticalLabelPosition=bottom;labelBackgroundColor=default;verticalAlign=top;aspect=fixed;imageAspect=0;image=data:image/png,iVBORw0KGgoAAAANSUhEUgAAAgAAAAIACAYAAAD0eNT6AAAABHNCSVQICAgIfAhkiAAAAAlwSFlzAAAOxAAADsQBlSsOGwAAABl0RVh0U29mdHdhcmUAd3d3Lmlua3NjYXBlLm9yZ5vuPBoAAB3eSURBVHic7d17rK1pfRfw7zNzZgYGGK4Dcy0IrVEEWmhJ7EWhDSEmWmnFeANi05vYEWKLSWvSUkn5o1OxKk2NGiwmrcaoLUTT2D/ahlYxmgqtFEsvUhgYKHcpDBSGmXn8Y717zj7rrLX22ntd3net3+eTPDl7Zu+99u/sOXN+3/3+nvd5W+89AEAt14xdAACwfwIAABQkAABAQQIAABQkAABAQQIAABQkAABAQQIAABQkAABAQQIAABQkAABAQQIAABQkAABAQQIAABQkAABAQQIAABQkAABAQQIAABQkAABAQQIAABQkAABAQQIAABQkAABAQQIAABQkAABAQQIAABQkAABAQQIAABQkAABAQQIAABQkAABAQQIAABQkAABAQQIAABQkAABAQQIAABQkAABAQQIAABQkAABAQQIAABQkAABAQQIAABQkAABAQQIAABQkAABAQQIAABQkAABAQQIAABQkAABAQQIAABQkAABAQQIAABQkAABAQQIAABQkAABAQQIAABQkAABAQQIAABQkAABAQQIAABQkAABAQQIAABQkAABAQQIAABQkAABAQQIAABQkAABAQQIAABQkAABAQQIAABQkAABAQQIAABQkAABAQQIAABQkAABAQQIAABQkAABAQQIAABQkAABAQQIAABQkAABAQQIAABQkAABAQQIAABQkAABAQQIAABQkAABAQQIAABQkAABAQQIAABQkAABAQQIAABQkAABAQQIAABQkAABAQQIAABQkAABAQQIAABQkAABAQQIAABQkAABAQZfGLoD9aq21JC9N8uokn0vyviTvTfL7w6/v7b1/brwKAdiH1nsfuwb2YGj8fynJDyd59hkf/tEMYWB+9d4/tss6AdgPAeDInbPxr+O+zF0xOLU+0Ht/YAtfA4AdEwCO1A4a/zoeSHJPFl89+H2jBYDpEACOzEiNf11GCwATIQAciYk3/nWcjBYevmIQowWAnREADtwRNP51GC0AbJkAcKCKNP51fSSLNyUaLQAsIQAcGI3/3OZHC6dHDPf03h8csTaA0QgAB+JU439tkueMXM6xMFoAyhIAJk7jH9VHsnhTotECcPAEgInS+Cdv2Wjh5K4FowVg0gSAidH4j8IDSd6fxRsTjRaASRAAJkLjL+X0aGE+HBgtAHshAIxM42fOZ7PklsYYLQBbJACMROPnAr6UK+9aOB0UjBaAcxEA9mxo/N+a2X38Gj/btGy08N7e+8fHLAyYHgFgTzR+Rma0AFxBANixI2j8H85sV/sdSa4ZuRZ2Y360cMWIoff++RFrA3ZEANiRI2j8J+7uvf9Aa+2GJE9L8owF648lecRoFbJrRgtwhC6NXcCxOaLGf4Xe+xeT/M6wrjD8nm/L4nDwjCRP2F+l7MAtw/r6+Xe01j6bJaclxmgBJk0A2JJjbfzr6LPLSB8a1q/Ov7+19rhcDgNPz5XhwGjhsD0myVcNa96XWmurnrVgtAAjEgA2NPHGf1+SR49dRO/900neMawrtNauz2yEMH/V4OnDMlo4XNcl+fJhXaW1ZrQAIxIALmjijf+/JXldkhcl+f6Ra1mp935/jBaqWne0ML8x0WgBtkAAOKdDaPy9919Mktbai0auZyNrjhbmRwpGC8fBaAF2TABY0yE1/iqG0cI7h3WFBaOFp8+9bbRwuM4aLfxBlj/G2WgBBgLAGTT+w7TGaOH2LL96YLRw2G4d1jfMv2PFaOG9ST5otEAlAsASpxr/a5N85cjlzNP4NzCMFu4d1ll3LcxfQTBaOGxGCzAQAOZo/Jxx14IDkY7XeUYL86clGi1wcASAgcbPOtY4EMlo4XgZLXBUygcAjZ9tMVoo7azRwvuz+LREowVGUzYADI3/WzLb3Kfxs3NGC2Vdl+QrhnWVJaOFk7sWPrGvIqmnXADQ+JmiNUcLi45SNlo4fKtGC5/J8sc4Gy2wkTIBQOPnUM2NFn5l/v1LRgsnYcFo4bDdlPVGC/PnHhgtcKajDwAaP8fOaKEsowU2crQBQOMHo4XizhotLHuMs9FCEUcXADR+WI/RQmk3JXnusOYtGi2crPcZLRyPowkAGj9sl9FCWatGC/2MxzgbLRyQgw8AGj/sn9FCWS3rjxbmRwxGCxNzsAFA44dpMloo7aKjhd/vvf/Rvopk5uACgMYPh81ooayzRgsndy1cde6B0cJuHEwA0Pjh+BktlNWS3DasP3PVOxePFk7WvUYLFzP5AKDxA4nRQnFGCzsw2QCg8R+34VLvtyd5XpKnJLkls58C7k3ywQW/frj3fv841XIIjBbKWne0cNW5B9VHC5MLAKca/2uz+PjLMWn8G2qtXZvk2zILdncu+JCvWfKpvbX2sSwOByc/FX5ISGCRc4wWFo0XjBYO1yajhQ/23h/aX6n7N5kAoPGX8eYkr7jA57XMrhQ8JUICW7TBaOEZmQUHo4XDtWq0cP8wWlj0MKajGC2MHgCGxv+SzH4i1PiPWGvth3Kx5r/2l8jFQ8Lpt4UEHma0UNb1Sf74sOYtGi2cDgcHMVoYLQBo/LW01l6U5HVj15GLhYRFVxOEBIwW6jprtPCHWf0Y50mMFvYeACbe+JPk7/Tef3LsIo7Qt2X2P80hEBLYmNFCaY/N2aOFZY9x3ttoYW8B4AAa/4n3jl3AsWmtXZ/kL4xdx5adJyQsu7NBSCjMaKGsi44W3tt7/+Q2C9l5ADigxs/uvCCzRFzN6ZDw1Us+RkjgKkYLZa0zWlh4WmIuMFrYWQDQ+DnlqWMXMGGbhoSTt4WEIowWSntsZmenPG/B+xaNFk4/xvmq0cLWA4DGzwKj321y4IQE1ma0UNa5Rwtb+4tZ44dRXTQkzAcGIeGIGS2UtXC0sHEA0PjhYAgJLGW0UM+FA4DGD0fpvCFh2eZFIeHIGC0cn3MHgIk3/ocihcKurRsSPp7ldzYICUfknKOF+fGC0cJI1g4AE2/8v5LkHyT5J5nekwOhopbkycO6aEi4N7NnvQsJB8xoYbrODACH0Ph7729LklmpwIEQEjBaGNHSAHBIjR84WpuEhPnDlL64+3LZJqOF3boqAGj8wIG5SEhYduKikHAgjBY293AA0PiZuF9IcneSO5LcueDXJ41XGgdASCjGaOFslzR+DsQfrvpz0Fp7RK4OBfNB4Ym7L5MDdp6QcNazG4SECTNamLmU5J3R+DlwvfcvJPm/w1qotfbILA8HJ78ezf/c7MTpkLDoPPZESDholUYLlzKt5q/xszPDwzB+b1gLtdZuzPJwcGeSL0vNJxuyvk1DwulzEoSEiTmm0cJUHtKi8TMJvffPZ8mlwSRprX1Vkl/fa1EcIyHhCB3aaGHsAKDxU9GDST6X5KaxC2HSLhoSFp24KCSMbIqjhbECgMZPZff23p/WWrsps9HC6THD/MhBSGAVIeFInHO08CeT/O1Nv+a+A4DGD4Pe+2eS/NawFmqtPSbLA8LJ2/YksMp5Q8KqZzcICSOYHy0MVwsOJgBo/HABvffPJnnPsBZqrT06qwPCHUket/NiOWTrhoRP5OwHPAkJB2LXAUDjhx3rvd+X9ULCooDw3fuokaPQktw8rIuGhJNnNwgJE7CrAKDxw4QMIeG3h/Ww1poAwDZtEhKueFtI2L1tBwCNH+r5mcz+wj+5smDjIqusExKyxgOehIQNbSsAaPxQ16uGHcxJHt64uOyuhpN/Z+MiZzlvSFg4chASlttWAPiW038BAHUNGxfXvbthWUBwdwPrEBI2MPZBQEBB57i7YdUZCe5uYB3rhoRVz244ypAgAACTtGzj4mmttUflchh4U5Kn7qc6jsxJSHjusg84xpAgAAAHq/f+uQwhobX26QgA7M55QsJvJflPSf7LcLVrkgQAgMu+L8k9WfzI6Nvi70xWOx0SXpbki621Nyf53uGR5ZPiDzPAZe/pvf/Cone01q5Jcmuu3otw+u1bk1y7n1I5ADckeWWS57fW/nLv/f0j13MFAQBgDb33h5J8aFj/c9HHtNauzSwEzF89OB0Ubs0OnuzGpH11kl9trT1z2NsyCQIAwJb03h/M5dvNFmqtXcrlkLAsKDwlQsKxuTPJ65K8ZuxCTggAAHvUe38gs53jH1z2Ma21f57kb+2tKPbl1a21N/Xel97+uk8SJsBx+kKSPnYRXOFSkhePXcQJVwAAjtPrkvx4ktuz+sTFJ2d2Pj/7sfRAon0TAACOVO/9/iTvG9ZCrbXrM7vFcVlAuCOzPQlCwnZ81dgFnBAAAAobQsL7h7VQa+26XL6SsOxqgo2L65nMMy4EAABW6r1/KeuFhNtydTD4+iRfs/MiOTcBAICNDSHhnmE9rLX2yggAkyQAADB192T25MiTKwuTuYx+yAQAAKbuf/Te/9rJPwyPil60WdGjos9BAADgoAzH6b5nWAsNIWFVQLgjyeN3XuyECQAAHJ0hJPz2sBZqrT0qZ4eEJ+y82JEIAACU1Hv/XJLfGdZCrbUbczkMfG2S1++nut1zzyYALNF7/3zv/Xd777+c5OfHrmebBAAAKEgAAICCBAAAKEgAAICCBAAAKEgAAICCBAAAKEgAAICCBAAAKEgAAICCBAAAKEgAAICCBAAAKEgAAICCBAAAKEgAAICCBAAAKEgAAICCBAAAKEgAAICCBAAAKEgAAICCBAAAKEgAAICCJhEAWmvXttYeMXYd+9Jae0Rr7dqx6wCgrtECQGvt61prb2ytvT3JZ5Lc11p7V2vtX7fWXj5WXbvSWnv58Ht7V5L7knymtfb24XvwdWPXB0Atl/b9BYef9F+f5HtzdQB59rD+ZmvtFUm+vff+oT2XuFWttduT/FSSF8+968YkXzesu1pr/zjJD/bev7DnEgEoaK9XAFprj0/yjiSvWeNrvzjJu1trf3rnhe3IUPu7c3Xzn3dNZt+TdwzfIwDYqX2PAP5pkmee4+Mfl+SnW2s37qienRlq/unMfg/remZm3yMA2Km9BYDW2jcnecUFPvXLk9y95XL24e7Maj+vVwzfKwDYmX1eAXjtBp97V2vtiVurZMeGWu/a4CU2+V4BwJn2EgBaazckec4mL5HkeVsqZx+el1nNF/Wc4XsGADuxrysAX5nk+g1f46u3UciebFrr9Zl9zwBgJ/YVAJ61hdf4U1t4jX3ZRq3b+J4BwEL7CgCb/vSfJNdt4TX2ZRu1buN7BgALTeIoYABgvwQAAChIAACAggQAAChIAACAggQAAChIAACAggQAAChIAACAggQAAChIAACAggQAAChIAACAggQAAChIAACAggQAAChIAACAggQAAChIAACAggQAAChIAACAggQAAChIAACAggQAAChIAACAggQAAChIAACAggQAAChIAACAggQAAChIAACAggQAAChIAACAggQAAChIAACAggQAAChIAACAggQAAChIAACAggQAAChIAACAggQAAChIAACAggQAAChIAACAggQAAChIAACAggQAAChIAACAggQAAChIAACAggQAAChIAACAggQAAChIAACAggQAAChIAACAggQAAChoXwHgk1t4jU9t4TUAgOwvAPyvLbzGO7fwGgBA9hQAeu/vy+ZXAQQAANiSfe4B+KUNPvfjSd69rUIAoLp9BoDXJPnDC37uK3vv92+zGACobG8BoPd+b5Lvu8Cn/pve+89tux4AqGyvtwH23n8qyQ8lWfen+X+f5K7dVQQANe39HIDe++uTPD+rN/V9Islf6b3/1d77RccGAMASl8b4or33d7XWnp/kmZmFgecneUxmtwv+WpJf773/0Ri1bcmDE3kNAFholACQJL33hzLb2f/uJG8eq44d+b0tvMbvbOE1AGAhRwHvxjs2/PyH4twDAHZIANiNTQPAe3rv922lEgBYQADYgd77h5O8ZYOX+Ilt1QIAiwgAu/PKzE4wPK9fSvIvt1wLAFxBANiR3vvHknx3zreb/5NJvqP33ndTFQDMCAA71Ht/a5KvTfKeNT78rUme1Xu/Z7dVAYAAsHO9919L8twkr03yX5N87tS7P5bk55P89d77t/bePzJCiQAUNNo5AJX03r+Y5EeS/Ehr7dokfyLJZ3vvHxi3MgCqEgD2rPf+YJL/M3YdANRmBAAABQkAAFCQAAAABQkAAFCQAAAABQkAAFCQAAAABQkAAFCQAAAABQkAAFCQAAAABQkAAFCQAAAABQkAAFCQAAAABQkAAFDQpbELAICxtNZuSvLkJDcPa9XbTxqpzJ0QAAA4Gq21x+bsZn76n68fp9LxCQAATN1jW2tfm/V+Ui/b0M9LAABg6v7csNgiAQCAC2mttSRPyOqfyp8zWoGsJAAAkGTthn767ScluXaUYtmYAABwpDR0VhEAAI7Ta5O8Phr61PSxCzghAACMaMlta9uYmz9yC6/B9t0zdgEnBACALVrzPnS3rdX1G2MXcEIAAFhBQ2fLBACACfqB1tr35coT4zR0tuUjSd46dhEnBADgYLXWrsnlXe43buElX7CF14BlXt17//TYRZwQAIDJmGvo61x2f2Lscucw/Lve+38Yu4jTBABgZzR0yANJfjDJj41dyDwBANjUd7TWHhUNHU77TJJfTPLjvfe3j13MIgIAsKk3jF0A7NlDST6V5GNJPj6s02//ZpL/3nt/YLQK1yAAwJFprT0u619yB85u6PNvf7L3/tA4pW6PAAATd86GfnOS68apFCajZEM/r20FgB9srb2x9/6BLb0eHLNrW2tfEQ0d1qWh78C2AsBrkvzd1tpbk7yx9/6rW3pdOEZ3JPndsYuAEWnoE7DNEcC1SV6a5KWttf+d5CeS/Nve+x9t8WvATi24bW3+J/JnjFcdTJaGfoB2tQfgK5O8KcndrbU3JflnxgOMYa6hn27myy63u20NZg39k7nctDX0I7TrTYBPTPL9Sf6e8QDbsKKhL3tbQ4erG/pZP6lr6AXs6y4A4wE29edbax+Nhg6Jhs4WjHEboPEAF/HoYcEx0tBZS2vthiRP28ZrjXkOgPEAcKw0dM6ttXZtktuS3LlkfVlmo822ja83hYOAjAeAqdPQ2UhrrWW2P2lVc781exxxTiEAnGY8AOyDhs5WtdYen+WN/c4ktye5YbQCF5haADhhPACcx+mGvs696Bo6axuedrmqud+Z5FGjFXhBl5K8LckLxy1jKeMBqElDZy9aa9dndjrnssZ+Z5LHj1bgDl3qvX9ja+3ZSV6d5GVJHjlyTcsYD8Dh0tDZu2FT3a1Z3dyfnC1tqjs0l5Kk9/6bSb6rtfb9Sb4ryfdk9k2aIuMBGJ+GzqiGTXU3Z3Vzvy3ODVnqij0AvfdPZfYT9huSfEtmVwX+7BiFrWHReOD6cUtiCSOb6dPQmZThMdjLGvudmV22n9SmukOzcBNg7/3BJD+b5Gdba8/JLAj8jUx/PMA0/cbYBRSkoTNZrbUbs7q53xkHf+3cmXcB9N7fleQ7h/HAd2ba4wGm6d1JPp/kxrELOWAnDX1ZA9fQmYRhU93tWd3cnzBagTxs7dsAe++fzOXxwEsyuyrwgl0VxvHovT/YWntnkm8Yu5YJOauhz7/9KQ2dsQ2b6m7J8sZ+Z5KnpOimukNz7nMAhvHAzyX5uWE88KpM++4BpuGHkvxSkmvGLmRHNHQOXmvt5qxu7rdluufHcE4b/YccxgOHcvcAI+q9v621dneSvz92LWvS0Dkqc5vqFq07kjxitALZu60kubm7B4wHWOaHk3x9xrmzREPnaM1tqlu2HjNagUzSVi/lGA+wSu/9S621b0pyV5IfSXLTBi+noVNCa+26XH1S3fx64mgFcrB2NsuZGw98Z2Z/6R/CeOA1rbX7e++/PHYhx2gIiW9srf3HJC9P8rwkz83sz8Zno6FTSGvtmlx9Ut38uiU21XExH0/ywSQfGH69YrXe+16qGHaPviSzqwIv3MsX3cy7Mztc6Gd6758fu5iLaK39aGanJm7i7t77D2yjHqhm2FS36vGvNtVxUZ/OgqZ+at3be//CqhfY2x+8ufHAITx74FlJ/kWSH22t/askP9l7f/+4JQFT0Vp7bFY3d5vquKjPZ3Vz/2Dv/bObfpG9XQFY+MVbe0IuHy701NEKWc9DSf5zZs8eOIjxgCsAcDGttUdmdXO3qY6Luj/Jh7K4sX8gs+b+qX0UMuqlp+E3+WOttX+U5C9mdlXghWPWtMI1mY0wXtJaO/jxAFQ1bKo7Oalu2YNkbKrjIh5K8gdZ0NRPrY/2MX/yPmUSs6dhPPCWJG8ZxgOvymyDmPEAsLZhU90tWd3cn5LjPZCK3Vq5qS7Jh3vvD4xX3vmMOgJYZRgPfEdmdw8YD1yAEQDHprX2pJz9+NfrRiuQQ7bxprpDM4krAIsM44F/2Fr78czGA69K8o3jVrWU8QBsqLV2U1Y39zsy3auCTNteNtUdmskGgBNLxgMvy3SfLGc8AHOGTXWnD7NZdN78JgdDUddkNtUdmsmOAFZprT0+lw8XMh5YwgiAfRg21d2W1Y9/fdJoBXLIDmpT3aGZ/BWARXrv/y+XxwPfnNndA8YDsGXDprqnZHVzvyU21XExR7Wp7tAcZAA4MYwH3prkra21Z+Xy3QPGA7CG1toTs7q53x6b6riYcpvqDs1BjgBWOTUe+J4kTxu3mjPtdDxgBFBba+0xWf1s9ztjUx0XY1PdETjoKwCLnBoPnD5cyHiAo9Jae0TOfvzrY0crkENmU10RRxcATgxPijMe4OC01i5l8Ul1p9fNoxXIIbOpjocd3QhglWE8cHK40NPGreZMG48HjACmp7XWsvikutPr1thUx8XYVMfajvYKwCLDeOANc4cLfdO4VS1lPHCATm2qW7buiE11XIxNdWxVqQBwwniAixg21Z01d5/qnyGmzaY69q7UCGCVYxwPGAGsb9hUd/qkukUPk7GpjouwqY5JKnkFYBHjgeM1bKo7OaluWXO3qY6LsKmOgyUAzDEeOCzDprqTk+qWPQL2liTXjlUjB82mOo6WEcAaDnU8kOTFOfARwPBY6FXN/fYk149VHwfNpjpKEwDOYTgXfeqHC532xSQ3bPgaOwsArbVHZ3ljt6mOTdhUB2cwAjiHAxwPbNr8L6y1dkOu3lQ339wfN1Z9HLRlm+oevkxvUx2czRWADR3Yswcu4qorAK21a3PlprpF583fnKTtt1SOwPymukWzd5vqYAsEgC0ZmuLUH018EW9L8o5cfVKdTXVcxMezfEOdTXWwRwLADhzIeAC2zaY6OCACwA6dGg/cleSpI5cDm7CpDo6MALAHRzwe4DjYVAcFCQB7NowHXp3kZTEeYPceTPKR2FQHzBEARmI8wJbYVAdciAAwsmE8cPLsAeMBTrOpDtgZAWBCWmvPzuW7Bx45cjnslk11wKgEgAkazr8/efaA8cDhsakOmDwBYMJOjQdeneSF41bDwKY64CgIAAfCeGBvbKoDShAADswwHjh59oDxwPnYVAcwEAAOlPHAVc7aVPeB3vt945UHMC0CwBEoMB6wqQ5gywSAI3Kg4wGb6gBGIAAcoYmNB2yqA5ggAeDIDeOBk2cPbHs8YFMdwIESAIo4NR64K8mXrfEpNtUBHDEBoJhhPPCSJK9MckNsqgMoSQAAgIKuGbsAAGD/BAAAKEgAAICCBAAAKEgAAICCBAAAKEgAAICCBAAAKEgAAICCBAAAKEgAAICCBAAAKEgAAICCBAAAKEgAAICCBAAAKEgAAICCBAAAKEgAAICCBAAAKEgAAICCBAAAKEgAAICCBAAAKEgAAICCBAAAKEgAAICCBAAAKEgAAICCBAAAKEgAAICCBAAAKEgAAICCBAAAKEgAAICCBAAAKEgAAICCBAAAKEgAAICCBAAAKEgAAICCBAAAKEgAAICCBAAAKEgAAICCBAAAKEgAAICCBAAAKEgAAICCBAAAKEgAAICCBAAAKEgAAICCBAAAKEgAAICCBAAAKEgAAICCBAAAKEgAAICCBAAAKEgAAICCBAAAKEgAAICCBAAAKEgAAICCBAAAKEgAAICCBAAAKEgAAICCBAAAKEgAAICCBAAAKEgAAICCBAAAKEgAAICCBAAAKEgAAICCBAAAKEgAAICCBAAAKEgAAICCBAAAKEgAAICCBAAAKEgAAICCBAAAKEgAAICCBAAAKEgAAICCBAAAKEgAAICCBAAAKEgAAICCBAAAKEgAAICCBAAAKEgAAICCBAAAKEgAAICCBAAAKEgAAICC/j8mwX9WfD8Z9gAAAABJRU5ErkJggg==;" vertex="1" parent="1">
          <mxGeometry x="153.01" y="560" width="132" height="132" as="geometry" />
        </mxCell>
        <mxCell id="iIudP2gkOA4t_6Lhybjl-2" value="" style="rounded=1;whiteSpace=wrap;html=1;fillColor=#ffe6cc;strokeColor=#d79b00;strokeWidth=2;" vertex="1" parent="1">
          <mxGeometry x="124.01" y="350" width="190" height="60" as="geometry" />
        </mxCell>
        <mxCell id="iIudP2gkOA4t_6Lhybjl-3" value="Application" style="text;html=1;align=center;verticalAlign=middle;whiteSpace=wrap;rounded=0;fontSize=19;" vertex="1" parent="1">
          <mxGeometry x="149.01" y="365" width="140" height="30" as="geometry" />
        </mxCell>
        <mxCell id="iIudP2gkOA4t_6Lhybjl-6" value="" style="rounded=1;whiteSpace=wrap;html=1;fillColor=#ffe6cc;strokeColor=#d79b00;strokeWidth=2;" vertex="1" parent="1">
          <mxGeometry x="124.01" y="510" width="190" height="65" as="geometry" />
        </mxCell>
        <mxCell id="iIudP2gkOA4t_6Lhybjl-7" value="System libraries" style="text;html=1;align=center;verticalAlign=middle;whiteSpace=wrap;rounded=0;fontSize=19;" vertex="1" parent="1">
          <mxGeometry x="130" y="527.5" width="180" height="30" as="geometry" />
        </mxCell>
        <mxCell id="iIudP2gkOA4t_6Lhybjl-8" value="" style="rounded=1;whiteSpace=wrap;html=1;fillColor=#ffe6cc;strokeColor=#d79b00;strokeWidth=2;" vertex="1" parent="1">
          <mxGeometry x="124.00999999999999" y="430" width="190" height="60" as="geometry" />
        </mxCell>
        <mxCell id="iIudP2gkOA4t_6Lhybjl-9" value="Packages" style="text;html=1;align=center;verticalAlign=middle;whiteSpace=wrap;rounded=0;fontSize=19;fillColor=none;strokeColor=none;" vertex="1" parent="1">
          <mxGeometry x="130" y="445" width="180" height="30" as="geometry" />
        </mxCell>
        <mxCell id="iIudP2gkOA4t_6Lhybjl-10" value="" style="rounded=1;whiteSpace=wrap;html=1;rotation=90;strokeColor=#000000;fontFamily=Comic Sans MS;fillColor=none;strokeWidth=2;" vertex="1" parent="1">
          <mxGeometry x="368.75" y="343.75" width="310.53" height="264.13" as="geometry" />
        </mxCell>
        <mxCell id="iIudP2gkOA4t_6Lhybjl-11" value="" style="shape=image;verticalLabelPosition=bottom;labelBackgroundColor=default;verticalAlign=top;aspect=fixed;imageAspect=0;image=data:image/png,iVBORw0KGgoAAAANSUhEUgAAAgAAAAIACAYAAAD0eNT6AAAABHNCSVQICAgIfAhkiAAAAAlwSFlzAAAOxAAADsQBlSsOGwAAABl0RVh0U29mdHdhcmUAd3d3Lmlua3NjYXBlLm9yZ5vuPBoAAB3eSURBVHic7d17rK1pfRfw7zNzZgYGGK4Dcy0IrVEEWmhJ7EWhDSEmWmnFeANi05vYEWKLSWvSUkn5o1OxKk2NGiwmrcaoLUTT2D/ahlYxmgqtFEsvUhgYKHcpDBSGmXn8Y717zj7rrLX22ntd3net3+eTPDl7Zu+99u/sOXN+3/3+nvd5W+89AEAt14xdAACwfwIAABQkAABAQQIAABQkAABAQQIAABQkAABAQQIAABQkAABAQQIAABQkAABAQQIAABQkAABAQQIAABQkAABAQQIAABQkAABAQQIAABQkAABAQQIAABQkAABAQQIAABQkAABAQQIAABQkAABAQQIAABQkAABAQQIAABQkAABAQQIAABQkAABAQQIAABQkAABAQQIAABQkAABAQQIAABQkAABAQQIAABQkAABAQQIAABQkAABAQQIAABQkAABAQQIAABQkAABAQQIAABQkAABAQQIAABQkAABAQQIAABQkAABAQQIAABQkAABAQQIAABQkAABAQQIAABQkAABAQQIAABQkAABAQQIAABQkAABAQQIAABQkAABAQQIAABQkAABAQQIAABQkAABAQQIAABQkAABAQQIAABQkAABAQQIAABQkAABAQQIAABQkAABAQQIAABQkAABAQQIAABQkAABAQQIAABQkAABAQQIAABQkAABAQQIAABQkAABAQQIAABQkAABAQQIAABQkAABAQQIAABQkAABAQQIAABQkAABAQQIAABQkAABAQQIAABQkAABAQQIAABQkAABAQQIAABQkAABAQZfGLoD9aq21JC9N8uokn0vyviTvTfL7w6/v7b1/brwKAdiH1nsfuwb2YGj8fynJDyd59hkf/tEMYWB+9d4/tss6AdgPAeDInbPxr+O+zF0xOLU+0Ht/YAtfA4AdEwCO1A4a/zoeSHJPFl89+H2jBYDpEACOzEiNf11GCwATIQAciYk3/nWcjBYevmIQowWAnREADtwRNP51GC0AbJkAcKCKNP51fSSLNyUaLQAsIQAcGI3/3OZHC6dHDPf03h8csTaA0QgAB+JU439tkueMXM6xMFoAyhIAJk7jH9VHsnhTotECcPAEgInS+Cdv2Wjh5K4FowVg0gSAidH4j8IDSd6fxRsTjRaASRAAJkLjL+X0aGE+HBgtAHshAIxM42fOZ7PklsYYLQBbJACMROPnAr6UK+9aOB0UjBaAcxEA9mxo/N+a2X38Gj/btGy08N7e+8fHLAyYHgFgTzR+Rma0AFxBANixI2j8H85sV/sdSa4ZuRZ2Y360cMWIoff++RFrA3ZEANiRI2j8J+7uvf9Aa+2GJE9L8owF648lecRoFbJrRgtwhC6NXcCxOaLGf4Xe+xeT/M6wrjD8nm/L4nDwjCRP2F+l7MAtw/r6+Xe01j6bJaclxmgBJk0A2JJjbfzr6LPLSB8a1q/Ov7+19rhcDgNPz5XhwGjhsD0myVcNa96XWmurnrVgtAAjEgA2NPHGf1+SR49dRO/900neMawrtNauz2yEMH/V4OnDMlo4XNcl+fJhXaW1ZrQAIxIALmjijf+/JXldkhcl+f6Ra1mp935/jBaqWne0ML8x0WgBtkAAOKdDaPy9919Mktbai0auZyNrjhbmRwpGC8fBaAF2TABY0yE1/iqG0cI7h3WFBaOFp8+9bbRwuM4aLfxBlj/G2WgBBgLAGTT+w7TGaOH2LL96YLRw2G4d1jfMv2PFaOG9ST5otEAlAsASpxr/a5N85cjlzNP4NzCMFu4d1ll3LcxfQTBaOGxGCzAQAOZo/Jxx14IDkY7XeUYL86clGi1wcASAgcbPOtY4EMlo4XgZLXBUygcAjZ9tMVoo7azRwvuz+LREowVGUzYADI3/WzLb3Kfxs3NGC2Vdl+QrhnWVJaOFk7sWPrGvIqmnXADQ+JmiNUcLi45SNlo4fKtGC5/J8sc4Gy2wkTIBQOPnUM2NFn5l/v1LRgsnYcFo4bDdlPVGC/PnHhgtcKajDwAaP8fOaKEsowU2crQBQOMHo4XizhotLHuMs9FCEUcXADR+WI/RQmk3JXnusOYtGi2crPcZLRyPowkAGj9sl9FCWatGC/2MxzgbLRyQgw8AGj/sn9FCWS3rjxbmRwxGCxNzsAFA44dpMloo7aKjhd/vvf/Rvopk5uACgMYPh81ooayzRgsndy1cde6B0cJuHEwA0Pjh+BktlNWS3DasP3PVOxePFk7WvUYLFzP5AKDxA4nRQnFGCzsw2QCg8R+34VLvtyd5XpKnJLkls58C7k3ywQW/frj3fv841XIIjBbKWne0cNW5B9VHC5MLAKca/2uz+PjLMWn8G2qtXZvk2zILdncu+JCvWfKpvbX2sSwOByc/FX5ISGCRc4wWFo0XjBYO1yajhQ/23h/aX6n7N5kAoPGX8eYkr7jA57XMrhQ8JUICW7TBaOEZmQUHo4XDtWq0cP8wWlj0MKajGC2MHgCGxv+SzH4i1PiPWGvth3Kx5r/2l8jFQ8Lpt4UEHma0UNb1Sf74sOYtGi2cDgcHMVoYLQBo/LW01l6U5HVj15GLhYRFVxOEBIwW6jprtPCHWf0Y50mMFvYeACbe+JPk7/Tef3LsIo7Qt2X2P80hEBLYmNFCaY/N2aOFZY9x3ttoYW8B4AAa/4n3jl3AsWmtXZ/kL4xdx5adJyQsu7NBSCjMaKGsi44W3tt7/+Q2C9l5ADigxs/uvCCzRFzN6ZDw1Us+RkjgKkYLZa0zWlh4WmIuMFrYWQDQ+DnlqWMXMGGbhoSTt4WEIowWSntsZmenPG/B+xaNFk4/xvmq0cLWA4DGzwKj321y4IQE1ma0UNa5Rwtb+4tZ44dRXTQkzAcGIeGIGS2UtXC0sHEA0PjhYAgJLGW0UM+FA4DGD0fpvCFh2eZFIeHIGC0cn3MHgIk3/ocihcKurRsSPp7ldzYICUfknKOF+fGC0cJI1g4AE2/8v5LkHyT5J5nekwOhopbkycO6aEi4N7NnvQsJB8xoYbrODACH0Ph7729LklmpwIEQEjBaGNHSAHBIjR84WpuEhPnDlL64+3LZJqOF3boqAGj8wIG5SEhYduKikHAgjBY293AA0PiZuF9IcneSO5LcueDXJ41XGgdASCjGaOFslzR+DsQfrvpz0Fp7RK4OBfNB4Ym7L5MDdp6QcNazG4SECTNamLmU5J3R+DlwvfcvJPm/w1qotfbILA8HJ78ezf/c7MTpkLDoPPZESDholUYLlzKt5q/xszPDwzB+b1gLtdZuzPJwcGeSL0vNJxuyvk1DwulzEoSEiTmm0cJUHtKi8TMJvffPZ8mlwSRprX1Vkl/fa1EcIyHhCB3aaGHsAKDxU9GDST6X5KaxC2HSLhoSFp24KCSMbIqjhbECgMZPZff23p/WWrsps9HC6THD/MhBSGAVIeFInHO08CeT/O1Nv+a+A4DGD4Pe+2eS/NawFmqtPSbLA8LJ2/YksMp5Q8KqZzcICSOYHy0MVwsOJgBo/HABvffPJnnPsBZqrT06qwPCHUket/NiOWTrhoRP5OwHPAkJB2LXAUDjhx3rvd+X9ULCooDw3fuokaPQktw8rIuGhJNnNwgJE7CrAKDxw4QMIeG3h/Ww1poAwDZtEhKueFtI2L1tBwCNH+r5mcz+wj+5smDjIqusExKyxgOehIQNbSsAaPxQ16uGHcxJHt64uOyuhpN/Z+MiZzlvSFg4chASlttWAPiW038BAHUNGxfXvbthWUBwdwPrEBI2MPZBQEBB57i7YdUZCe5uYB3rhoRVz244ypAgAACTtGzj4mmttUflchh4U5Kn7qc6jsxJSHjusg84xpAgAAAHq/f+uQwhobX26QgA7M55QsJvJflPSf7LcLVrkgQAgMu+L8k9WfzI6Nvi70xWOx0SXpbki621Nyf53uGR5ZPiDzPAZe/pvf/Cone01q5Jcmuu3otw+u1bk1y7n1I5ADckeWWS57fW/nLv/f0j13MFAQBgDb33h5J8aFj/c9HHtNauzSwEzF89OB0Ubs0OnuzGpH11kl9trT1z2NsyCQIAwJb03h/M5dvNFmqtXcrlkLAsKDwlQsKxuTPJ65K8ZuxCTggAAHvUe38gs53jH1z2Ma21f57kb+2tKPbl1a21N/Xel97+uk8SJsBx+kKSPnYRXOFSkhePXcQJVwAAjtPrkvx4ktuz+sTFJ2d2Pj/7sfRAon0TAACOVO/9/iTvG9ZCrbXrM7vFcVlAuCOzPQlCwnZ81dgFnBAAAAobQsL7h7VQa+26XL6SsOxqgo2L65nMMy4EAABW6r1/KeuFhNtydTD4+iRfs/MiOTcBAICNDSHhnmE9rLX2yggAkyQAADB192T25MiTKwuTuYx+yAQAAKbuf/Te/9rJPwyPil60WdGjos9BAADgoAzH6b5nWAsNIWFVQLgjyeN3XuyECQAAHJ0hJPz2sBZqrT0qZ4eEJ+y82JEIAACU1Hv/XJLfGdZCrbUbczkMfG2S1++nut1zzyYALNF7/3zv/Xd777+c5OfHrmebBAAAKEgAAICCBAAAKEgAAICCBAAAKEgAAICCBAAAKEgAAICCBAAAKEgAAICCBAAAKEgAAICCBAAAKEgAAICCBAAAKEgAAICCBAAAKEgAAICCBAAAKEgAAICCBAAAKEgAAICCBAAAKEgAAICCJhEAWmvXttYeMXYd+9Jae0Rr7dqx6wCgrtECQGvt61prb2ytvT3JZ5Lc11p7V2vtX7fWXj5WXbvSWnv58Ht7V5L7knymtfb24XvwdWPXB0Atl/b9BYef9F+f5HtzdQB59rD+ZmvtFUm+vff+oT2XuFWttduT/FSSF8+968YkXzesu1pr/zjJD/bev7DnEgEoaK9XAFprj0/yjiSvWeNrvzjJu1trf3rnhe3IUPu7c3Xzn3dNZt+TdwzfIwDYqX2PAP5pkmee4+Mfl+SnW2s37qienRlq/unMfg/remZm3yMA2Km9BYDW2jcnecUFPvXLk9y95XL24e7Maj+vVwzfKwDYmX1eAXjtBp97V2vtiVurZMeGWu/a4CU2+V4BwJn2EgBaazckec4mL5HkeVsqZx+el1nNF/Wc4XsGADuxrysAX5nk+g1f46u3UciebFrr9Zl9zwBgJ/YVAJ61hdf4U1t4jX3ZRq3b+J4BwEL7CgCb/vSfJNdt4TX2ZRu1buN7BgALTeIoYABgvwQAAChIAACAggQAAChIAACAggQAAChIAACAggQAAChIAACAggQAAChIAACAggQAAChIAACAggQAAChIAACAggQAAChIAACAggQAAChIAACAggQAAChIAACAggQAAChIAACAggQAAChIAACAggQAAChIAACAggQAAChIAACAggQAAChIAACAggQAAChIAACAggQAAChIAACAggQAAChIAACAggQAAChIAACAggQAAChIAACAggQAAChIAACAggQAAChIAACAggQAAChIAACAggQAAChIAACAggQAAChIAACAggQAAChIAACAggQAAChIAACAggQAAChIAACAggQAAChoXwHgk1t4jU9t4TUAgOwvAPyvLbzGO7fwGgBA9hQAeu/vy+ZXAQQAANiSfe4B+KUNPvfjSd69rUIAoLp9BoDXJPnDC37uK3vv92+zGACobG8BoPd+b5Lvu8Cn/pve+89tux4AqGyvtwH23n8qyQ8lWfen+X+f5K7dVQQANe39HIDe++uTPD+rN/V9Islf6b3/1d77RccGAMASl8b4or33d7XWnp/kmZmFgecneUxmtwv+WpJf773/0Ri1bcmDE3kNAFholACQJL33hzLb2f/uJG8eq44d+b0tvMbvbOE1AGAhRwHvxjs2/PyH4twDAHZIANiNTQPAe3rv922lEgBYQADYgd77h5O8ZYOX+Ilt1QIAiwgAu/PKzE4wPK9fSvIvt1wLAFxBANiR3vvHknx3zreb/5NJvqP33ndTFQDMCAA71Ht/a5KvTfKeNT78rUme1Xu/Z7dVAYAAsHO9919L8twkr03yX5N87tS7P5bk55P89d77t/bePzJCiQAUNNo5AJX03r+Y5EeS/Ehr7dokfyLJZ3vvHxi3MgCqEgD2rPf+YJL/M3YdANRmBAAABQkAAFCQAAAABQkAAFCQAAAABQkAAFCQAAAABQkAAFCQAAAABQkAAFCQAAAABQkAAFCQAAAABQkAAFCQAAAABQkAAFDQpbELAICxtNZuSvLkJDcPa9XbTxqpzJ0QAAA4Gq21x+bsZn76n68fp9LxCQAATN1jW2tfm/V+Ui/b0M9LAABg6v7csNgiAQCAC2mttSRPyOqfyp8zWoGsJAAAkGTthn767ScluXaUYtmYAABwpDR0VhEAAI7Ta5O8Phr61PSxCzghAACMaMlta9uYmz9yC6/B9t0zdgEnBACALVrzPnS3rdX1G2MXcEIAAFhBQ2fLBACACfqB1tr35coT4zR0tuUjSd46dhEnBADgYLXWrsnlXe43buElX7CF14BlXt17//TYRZwQAIDJmGvo61x2f2Lscucw/Lve+38Yu4jTBABgZzR0yANJfjDJj41dyDwBANjUd7TWHhUNHU77TJJfTPLjvfe3j13MIgIAsKk3jF0A7NlDST6V5GNJPj6s02//ZpL/3nt/YLQK1yAAwJFprT0u619yB85u6PNvf7L3/tA4pW6PAAATd86GfnOS68apFCajZEM/r20FgB9srb2x9/6BLb0eHLNrW2tfEQ0d1qWh78C2AsBrkvzd1tpbk7yx9/6rW3pdOEZ3JPndsYuAEWnoE7DNEcC1SV6a5KWttf+d5CeS/Nve+x9t8WvATi24bW3+J/JnjFcdTJaGfoB2tQfgK5O8KcndrbU3JflnxgOMYa6hn27myy63u20NZg39k7nctDX0I7TrTYBPTPL9Sf6e8QDbsKKhL3tbQ4erG/pZP6lr6AXs6y4A4wE29edbax+Nhg6Jhs4WjHEboPEAF/HoYcEx0tBZS2vthiRP28ZrjXkOgPEAcKw0dM6ttXZtktuS3LlkfVlmo822ja83hYOAjAeAqdPQ2UhrrWW2P2lVc781exxxTiEAnGY8AOyDhs5WtdYen+WN/c4ktye5YbQCF5haADhhPACcx+mGvs696Bo6axuedrmqud+Z5FGjFXhBl5K8LckLxy1jKeMBqElDZy9aa9dndjrnssZ+Z5LHj1bgDl3qvX9ja+3ZSV6d5GVJHjlyTcsYD8Dh0tDZu2FT3a1Z3dyfnC1tqjs0l5Kk9/6bSb6rtfb9Sb4ryfdk9k2aIuMBGJ+GzqiGTXU3Z3Vzvy3ODVnqij0AvfdPZfYT9huSfEtmVwX+7BiFrWHReOD6cUtiCSOb6dPQmZThMdjLGvudmV22n9SmukOzcBNg7/3BJD+b5Gdba8/JLAj8jUx/PMA0/cbYBRSkoTNZrbUbs7q53xkHf+3cmXcB9N7fleQ7h/HAd2ba4wGm6d1JPp/kxrELOWAnDX1ZA9fQmYRhU93tWd3cnzBagTxs7dsAe++fzOXxwEsyuyrwgl0VxvHovT/YWntnkm8Yu5YJOauhz7/9KQ2dsQ2b6m7J8sZ+Z5KnpOimukNz7nMAhvHAzyX5uWE88KpM++4BpuGHkvxSkmvGLmRHNHQOXmvt5qxu7rdluufHcE4b/YccxgOHcvcAI+q9v621dneSvz92LWvS0Dkqc5vqFq07kjxitALZu60kubm7B4wHWOaHk3x9xrmzREPnaM1tqlu2HjNagUzSVi/lGA+wSu/9S621b0pyV5IfSXLTBi+noVNCa+26XH1S3fx64mgFcrB2NsuZGw98Z2Z/6R/CeOA1rbX7e++/PHYhx2gIiW9srf3HJC9P8rwkz83sz8Zno6FTSGvtmlx9Ut38uiU21XExH0/ywSQfGH69YrXe+16qGHaPviSzqwIv3MsX3cy7Mztc6Gd6758fu5iLaK39aGanJm7i7t77D2yjHqhm2FS36vGvNtVxUZ/OgqZ+at3be//CqhfY2x+8ufHAITx74FlJ/kWSH22t/askP9l7f/+4JQFT0Vp7bFY3d5vquKjPZ3Vz/2Dv/bObfpG9XQFY+MVbe0IuHy701NEKWc9DSf5zZs8eOIjxgCsAcDGttUdmdXO3qY6Luj/Jh7K4sX8gs+b+qX0UMuqlp+E3+WOttX+U5C9mdlXghWPWtMI1mY0wXtJaO/jxAFQ1bKo7Oalu2YNkbKrjIh5K8gdZ0NRPrY/2MX/yPmUSs6dhPPCWJG8ZxgOvymyDmPEAsLZhU90tWd3cn5LjPZCK3Vq5qS7Jh3vvD4xX3vmMOgJYZRgPfEdmdw8YD1yAEQDHprX2pJz9+NfrRiuQQ7bxprpDM4krAIsM44F/2Fr78czGA69K8o3jVrWU8QBsqLV2U1Y39zsy3auCTNteNtUdmskGgBNLxgMvy3SfLGc8AHOGTXWnD7NZdN78JgdDUddkNtUdmsmOAFZprT0+lw8XMh5YwgiAfRg21d2W1Y9/fdJoBXLIDmpT3aGZ/BWARXrv/y+XxwPfnNndA8YDsGXDprqnZHVzvyU21XExR7Wp7tAcZAA4MYwH3prkra21Z+Xy3QPGA7CG1toTs7q53x6b6riYcpvqDs1BjgBWOTUe+J4kTxu3mjPtdDxgBFBba+0xWf1s9ztjUx0XY1PdETjoKwCLnBoPnD5cyHiAo9Jae0TOfvzrY0crkENmU10RRxcATgxPijMe4OC01i5l8Ul1p9fNoxXIIbOpjocd3QhglWE8cHK40NPGreZMG48HjACmp7XWsvikutPr1thUx8XYVMfajvYKwCLDeOANc4cLfdO4VS1lPHCATm2qW7buiE11XIxNdWxVqQBwwniAixg21Z01d5/qnyGmzaY69q7UCGCVYxwPGAGsb9hUd/qkukUPk7GpjouwqY5JKnkFYBHjgeM1bKo7OaluWXO3qY6LsKmOgyUAzDEeOCzDprqTk+qWPQL2liTXjlUjB82mOo6WEcAaDnU8kOTFOfARwPBY6FXN/fYk149VHwfNpjpKEwDOYTgXfeqHC532xSQ3bPgaOwsArbVHZ3ljt6mOTdhUB2cwAjiHAxwPbNr8L6y1dkOu3lQ339wfN1Z9HLRlm+oevkxvUx2czRWADR3Yswcu4qorAK21a3PlprpF583fnKTtt1SOwPymukWzd5vqYAsEgC0ZmuLUH018EW9L8o5cfVKdTXVcxMezfEOdTXWwRwLADhzIeAC2zaY6OCACwA6dGg/cleSpI5cDm7CpDo6MALAHRzwe4DjYVAcFCQB7NowHXp3kZTEeYPceTPKR2FQHzBEARmI8wJbYVAdciAAwsmE8cPLsAeMBTrOpDtgZAWBCWmvPzuW7Bx45cjnslk11wKgEgAkazr8/efaA8cDhsakOmDwBYMJOjQdeneSF41bDwKY64CgIAAfCeGBvbKoDShAADswwHjh59oDxwPnYVAcwEAAOlPHAVc7aVPeB3vt945UHMC0CwBEoMB6wqQ5gywSAI3Kg4wGb6gBGIAAcoYmNB2yqA5ggAeDIDeOBk2cPbHs8YFMdwIESAIo4NR64K8mXrfEpNtUBHDEBoJhhPPCSJK9MckNsqgMoSQAAgIKuGbsAAGD/BAAAKEgAAICCBAAAKEgAAICCBAAAKEgAAICCBAAAKEgAAICCBAAAKEgAAICCBAAAKEgAAICCBAAAKEgAAICCBAAAKEgAAICCBAAAKEgAAICCBAAAKEgAAICCBAAAKEgAAICCBAAAKEgAAICCBAAAKEgAAICCBAAAKEgAAICCBAAAKEgAAICCBAAAKEgAAICCBAAAKEgAAICCBAAAKEgAAICCBAAAKEgAAICCBAAAKEgAAICCBAAAKEgAAICCBAAAKEgAAICCBAAAKEgAAICCBAAAKEgAAICCBAAAKEgAAICCBAAAKEgAAICCBAAAKEgAAICCBAAAKEgAAICCBAAAKEgAAICCBAAAKEgAAICCBAAAKEgAAICCBAAAKEgAAICCBAAAKEgAAICCBAAAKEgAAICCBAAAKEgAAICCBAAAKEgAAICCBAAAKEgAAICCBAAAKEgAAICCBAAAKEgAAICCBAAAKEgAAICCBAAAKEgAAICCBAAAKEgAAICCBAAAKEgAAICCBAAAKEgAAICCBAAAKEgAAICCBAAAKEgAAICCBAAAKEgAAICCBAAAKEgAAICCBAAAKEgAAICCBAAAKEgAAICC/j8mwX9WfD8Z9gAAAABJRU5ErkJggg==;" vertex="1" parent="1">
          <mxGeometry x="458.01" y="560" width="132" height="132" as="geometry" />
        </mxCell>
        <mxCell id="iIudP2gkOA4t_6Lhybjl-12" value="" style="rounded=1;whiteSpace=wrap;html=1;fillColor=#ffe6cc;strokeColor=#d79b00;strokeWidth=2;" vertex="1" parent="1">
          <mxGeometry x="429.01" y="350" width="190" height="60" as="geometry" />
        </mxCell>
        <mxCell id="iIudP2gkOA4t_6Lhybjl-13" value="Application" style="text;html=1;align=center;verticalAlign=middle;whiteSpace=wrap;rounded=0;fontSize=19;" vertex="1" parent="1">
          <mxGeometry x="454.01" y="365" width="140" height="30" as="geometry" />
        </mxCell>
        <mxCell id="iIudP2gkOA4t_6Lhybjl-14" value="" style="rounded=1;whiteSpace=wrap;html=1;fillColor=#ffe6cc;strokeColor=#d79b00;strokeWidth=2;" vertex="1" parent="1">
          <mxGeometry x="429.01" y="510" width="190" height="65" as="geometry" />
        </mxCell>
        <mxCell id="iIudP2gkOA4t_6Lhybjl-15" value="System libraries" style="text;html=1;align=center;verticalAlign=middle;whiteSpace=wrap;rounded=0;fontSize=19;" vertex="1" parent="1">
          <mxGeometry x="435" y="527.5" width="180" height="30" as="geometry" />
        </mxCell>
        <mxCell id="iIudP2gkOA4t_6Lhybjl-16" value="" style="rounded=1;whiteSpace=wrap;html=1;fillColor=#ffe6cc;strokeColor=#d79b00;strokeWidth=2;" vertex="1" parent="1">
          <mxGeometry x="429.01" y="430" width="190" height="60" as="geometry" />
        </mxCell>
        <mxCell id="iIudP2gkOA4t_6Lhybjl-17" value="Packages" style="text;html=1;align=center;verticalAlign=middle;whiteSpace=wrap;rounded=0;fontSize=19;" vertex="1" parent="1">
          <mxGeometry x="435" y="445" width="180" height="30" as="geometry" />
        </mxCell>
        <mxCell id="iIudP2gkOA4t_6Lhybjl-18" value="" style="rounded=1;whiteSpace=wrap;html=1;fillColor=#d5e8d4;strokeColor=#82b366;strokeWidth=2;" vertex="1" parent="1">
          <mxGeometry x="90" y="703.5" width="570" height="60" as="geometry" />
        </mxCell>
        <mxCell id="iIudP2gkOA4t_6Lhybjl-19" value="Host operating system" style="text;html=1;align=center;verticalAlign=middle;whiteSpace=wrap;rounded=0;fontSize=19;" vertex="1" parent="1">
          <mxGeometry x="240" y="715" width="270" height="37" as="geometry" />
        </mxCell>
        <mxCell id="iIudP2gkOA4t_6Lhybjl-20" value="" style="rounded=1;whiteSpace=wrap;html=1;fillColor=#f8cecc;strokeColor=#b85450;strokeWidth=2;" vertex="1" parent="1">
          <mxGeometry x="90" y="781.5" width="570" height="60" as="geometry" />
        </mxCell>
        <mxCell id="iIudP2gkOA4t_6Lhybjl-21" value="Infrastructure" style="text;html=1;align=center;verticalAlign=middle;whiteSpace=wrap;rounded=0;fontSize=19;" vertex="1" parent="1">
          <mxGeometry x="240" y="793" width="270" height="37" as="geometry" />
        </mxCell>
        <mxCell id="iIudP2gkOA4t_6Lhybjl-22" value="&lt;font style=&quot;font-size: 19px;&quot;&gt;Container Runtime&lt;/font&gt;" style="rounded=1;whiteSpace=wrap;html=1;fillColor=#dae8fc;strokeColor=#6c8ebf;fontSize=19;" vertex="1" parent="1">
          <mxGeometry x="245" y="675" width="260" height="40" as="geometry" />
        </mxCell>
      </root>
    </mxGraphModel>
  </diagram>
</mxfile>
